<svg width="12" height="12" viewBox="0 0 12 12" fill="none" xmlns="http://www.w3.org/2000/svg">
<path d="M2.88954 10.8887V9.33645C2.88954 9.21001 2.79114 9.11169 2.66469 9.11169H1.11176C0.985275 9.11169 0.886902 9.21001 0.886902 9.33645V10.8887C0.886902 11.0151 0.985275 11.1135 1.11176 11.1135H2.66469C2.79114 11.1135 2.88954 11.0151 2.88954 10.8887Z" fill="#191E3B"/>
<path d="M11.1196 9.55381V1.90501C11.1196 1.33605 10.6628 0.879517 10.0936 0.879517H2.44146C2.28687 0.879517 2.19553 0.935726 2.09716 1.03404L0.572348 2.57223C0.459919 2.68461 0.537214 2.85319 0.70586 2.85319H7.62726L3.33387 7.14466C3.25657 7.22192 3.22144 7.29918 3.22144 7.42562V8.55645C3.22144 8.68988 3.31281 8.7812 3.44629 8.7812H4.57762C4.71111 8.7812 4.7884 8.74609 4.85866 8.66883L9.15205 4.37732V11.2957C9.15205 11.4642 9.32067 11.5415 9.43314 11.4291L10.972 9.89797C11.0633 9.79962 11.1196 9.70834 11.1196 9.55381Z" fill="#191E3B"/>
</svg>
